# xmcd
#
# Track frame offsets:
#	150
#	14524
#	30350
#	51446
#	70848
#	93153
#	112236
#	139651
#	154501
#	176093
#	198783
#	215323
#	234177
#	252233
#	279306
#
# Disc length: 3968 seconds
#
# Revision: 0
# Processed by: cddbd v1.5.2PL0 Copyright (c) Steve Scherf et al.
# Submitted via: EasyCDDAExtractor 11.9.9.666
#
DISCID=c60f7e0f
DTITLE=The Humbuggers - Temperamental Blues
DYEAR=2007
DGENRE=Blues
TTITLE0=Nowhere to Everywhere
TTITLE1=Sure Enough
TTITLE2=Mean to Your Queenie
TTITLE3=Top of the Hill
TTITLE4=Still Got Her Suitcase
TTITLE5=Watch Out
TTITLE6=Say
TTITLE7=Something Inside of Me
TTITLE8=Bringing it Back
TTITLE9=Crosseyed Cat
TTITLE10=One Step at a Time
TTITLE11=I Can Tell
TTITLE12=Six Shots
TTITLE13=Sensitive Kind
TTITLE14=Don't Stop Now
EXTD=
EXTT0=
EXTT1=
EXTT2=
EXTT3=
EXTT4=
EXTT5=
EXTT6=
EXTT7=
EXTT8=
EXTT9=
EXTT10=
EXTT11=
EXTT12=
EXTT13=
EXTT14=
PLAYORDER=
